<?xml version="1.0" encoding="UTF-8" standalone="no"?>
<!DOCTYPE svg PUBLIC "-//W3C//DTD SVG 1.1//EN"
 "http://www.w3.org/Graphics/SVG/1.1/DTD/svg11.dtd">
<!-- Generated by graphviz version 2.47.0 (20210316.0004)
 -->
<!-- Title: dependencies Pages: 1 -->
<svg width="1214pt" height="211pt"
 viewBox="0.00 0.00 1214.00 211.00" xmlns="http://www.w3.org/2000/svg" xmlns:xlink="http://www.w3.org/1999/xlink">
<g id="graph0" class="graph" transform="scale(1 1) rotate(0) translate(4 207)">
<title>dependencies</title>
<polygon fill="white" stroke="transparent" points="-4,4 -4,-207 1210,-207 1210,4 -4,4"/>
<text text-anchor="start" x="582.01" y="-42.4" font-family="Times-12" font-weight="bold" font-size="14.00">Legend</text>
<polygon fill="#ffffb3" stroke="transparent" points="369,-10 369,-30 389,-30 389,-10 369,-10"/>
<text text-anchor="start" x="392.63" y="-15.4" font-family="Times-12" font-size="14.00"> &#160;Declarations</text>
<polygon fill="#8dd3c7" stroke="transparent" points="482,-10 482,-30 502,-30 502,-10 482,-10"/>
<text text-anchor="start" x="505.73" y="-15.4" font-family="Times-12" font-size="14.00"> &#160;Module</text>
<polygon fill="#80b1d3" stroke="transparent" points="568,-10 568,-30 588,-30 588,-10 568,-10"/>
<text text-anchor="start" x="591.78" y="-15.4" font-family="Times-12" font-size="14.00"> &#160;Bootstrap</text>
<polygon fill="#fdb462" stroke="transparent" points="665,-10 665,-30 685,-30 685,-10 665,-10"/>
<text text-anchor="start" x="688.67" y="-15.4" font-family="Times-12" font-size="14.00"> &#160;Providers</text>
<polygon fill="#fb8072" stroke="transparent" points="761,-10 761,-30 781,-30 781,-10 761,-10"/>
<text text-anchor="start" x="784.73" y="-15.4" font-family="Times-12" font-size="14.00"> &#160;Exports</text>
<g id="clust1" class="cluster">
<title>cluster_AppModule</title>
<polygon fill="none" stroke="black" stroke-dasharray="1,5" points="8,-70 8,-195 1198,-195 1198,-70 8,-70"/>
</g>
<g id="clust3" class="cluster">
<title>cluster_AppModule_imports</title>
<polygon fill="none" stroke="black" points="16,-78 16,-130 1190,-130 1190,-78 16,-78"/>
</g>
<!-- AuthModule -->
<g id="node1" class="node">
<title>AuthModule</title>
<polygon fill="#8dd3c7" stroke="black" points="1181.55,-122 1178.55,-126 1157.55,-126 1154.55,-122 1094.45,-122 1094.45,-86 1181.55,-86 1181.55,-122"/>
<text text-anchor="middle" x="1138" y="-99.8" font-family="Times,serif" font-size="14.00">AuthModule</text>
</g>
<!-- AppModule -->
<g id="node10" class="node">
<title>AppModule</title>
<polygon fill="#8dd3c7" stroke="black" points="601.66,-187 598.66,-191 577.66,-191 574.66,-187 518.34,-187 518.34,-151 601.66,-151 601.66,-187"/>
<text text-anchor="middle" x="560" y="-164.8" font-family="Times,serif" font-size="14.00">AppModule</text>
</g>
<!-- AuthModule&#45;&gt;AppModule -->
<g id="edge1" class="edge">
<title>AuthModule&#45;&gt;AppModule</title>
<path fill="none" stroke="black" d="M1138,-122.01C1138,-144.49 1138,-180 1138,-180 1138,-180 612.03,-180 612.03,-180"/>
<polygon fill="black" stroke="black" points="612.03,-176.5 602.03,-180 612.03,-183.5 612.03,-176.5"/>
</g>
<!-- DepartmentsModule -->
<g id="node2" class="node">
<title>DepartmentsModule</title>
<polygon fill="#8dd3c7" stroke="black" points="1076.58,-122 1073.58,-126 1052.58,-126 1049.58,-122 945.42,-122 945.42,-86 1076.58,-86 1076.58,-122"/>
<text text-anchor="middle" x="1011" y="-99.8" font-family="Times,serif" font-size="14.00">DepartmentsModule</text>
</g>
<!-- DepartmentsModule&#45;&gt;AppModule -->
<g id="edge2" class="edge">
<title>DepartmentsModule&#45;&gt;AppModule</title>
<path fill="none" stroke="black" d="M1011,-122.13C1011,-142.57 1011,-173 1011,-173 1011,-173 612.02,-173 612.02,-173"/>
<polygon fill="black" stroke="black" points="612.02,-169.5 602.02,-173 612.02,-176.5 612.02,-169.5"/>
</g>
<!-- ExpenseCategoryModule -->
<g id="node3" class="node">
<title>ExpenseCategoryModule</title>
<polygon fill="#8dd3c7" stroke="black" points="927.29,-122 924.29,-126 903.29,-126 900.29,-122 768.71,-122 768.71,-86 927.29,-86 927.29,-122"/>
<text text-anchor="middle" x="848" y="-99.8" font-family="Times,serif" font-size="14.00">ExpenseCategoryModule</text>
</g>
<!-- ExpenseCategoryModule&#45;&gt;AppModule -->
<g id="edge3" class="edge">
<title>ExpenseCategoryModule&#45;&gt;AppModule</title>
<path fill="none" stroke="black" d="M848,-122.27C848,-140.56 848,-166 848,-166 848,-166 611.88,-166 611.88,-166"/>
<polygon fill="black" stroke="black" points="611.88,-162.5 601.88,-166 611.88,-169.5 611.88,-162.5"/>
</g>
<!-- ExpensesModule -->
<g id="node4" class="node">
<title>ExpensesModule</title>
<polygon fill="#8dd3c7" stroke="black" points="751.42,-122 748.42,-126 727.42,-126 724.42,-122 638.58,-122 638.58,-86 751.42,-86 751.42,-122"/>
<text text-anchor="middle" x="695" y="-99.8" font-family="Times,serif" font-size="14.00">ExpensesModule</text>
</g>
<!-- ExpensesModule&#45;&gt;AppModule -->
<g id="edge4" class="edge">
<title>ExpensesModule&#45;&gt;AppModule</title>
<path fill="none" stroke="black" d="M695,-122.01C695,-138.05 695,-159 695,-159 695,-159 611.97,-159 611.97,-159"/>
<polygon fill="black" stroke="black" points="611.97,-155.5 601.97,-159 611.97,-162.5 611.97,-155.5"/>
</g>
<!-- MilestonesModule -->
<g id="node5" class="node">
<title>MilestonesModule</title>
<polygon fill="#8dd3c7" stroke="black" points="620.48,-122 617.48,-126 596.48,-126 593.48,-122 499.52,-122 499.52,-86 620.48,-86 620.48,-122"/>
<text text-anchor="middle" x="560" y="-99.8" font-family="Times,serif" font-size="14.00">MilestonesModule</text>
</g>
<!-- MilestonesModule&#45;&gt;AppModule -->
<g id="edge5" class="edge">
<title>MilestonesModule&#45;&gt;AppModule</title>
<path fill="none" stroke="black" d="M560,-122.11C560,-122.11 560,-140.99 560,-140.99"/>
<polygon fill="black" stroke="black" points="556.5,-140.99 560,-150.99 563.5,-140.99 556.5,-140.99"/>
</g>
<!-- PrismaModule -->
<g id="node6" class="node">
<title>PrismaModule</title>
<polygon fill="#8dd3c7" stroke="black" points="481.43,-122 478.43,-126 457.43,-126 454.43,-122 382.57,-122 382.57,-86 481.43,-86 481.43,-122"/>
<text text-anchor="middle" x="432" y="-99.8" font-family="Times,serif" font-size="14.00">PrismaModule</text>
</g>
<!-- PrismaModule&#45;&gt;AppModule -->
<g id="edge6" class="edge">
<title>PrismaModule&#45;&gt;AppModule</title>
<path fill="none" stroke="black" d="M432,-122.01C432,-138.05 432,-159 432,-159 432,-159 508.09,-159 508.09,-159"/>
<polygon fill="black" stroke="black" points="508.09,-162.5 518.09,-159 508.09,-155.5 508.09,-162.5"/>
</g>
<!-- ProductsModule -->
<g id="node7" class="node">
<title>ProductsModule</title>
<polygon fill="#8dd3c7" stroke="black" points="365.04,-122 362.04,-126 341.04,-126 338.04,-122 256.96,-122 256.96,-86 365.04,-86 365.04,-122"/>
<text text-anchor="middle" x="311" y="-99.8" font-family="Times,serif" font-size="14.00">ProductsModule</text>
</g>
<!-- ProductsModule&#45;&gt;AppModule -->
<g id="edge7" class="edge">
<title>ProductsModule&#45;&gt;AppModule</title>
<path fill="none" stroke="black" d="M311,-122.27C311,-140.56 311,-166 311,-166 311,-166 508.32,-166 508.32,-166"/>
<polygon fill="black" stroke="black" points="508.32,-169.5 518.32,-166 508.32,-162.5 508.32,-169.5"/>
</g>
<!-- ProjectsModule -->
<g id="node8" class="node">
<title>ProjectsModule</title>
<polygon fill="#8dd3c7" stroke="black" points="238.15,-122 235.15,-126 214.15,-126 211.15,-122 133.85,-122 133.85,-86 238.15,-86 238.15,-122"/>
<text text-anchor="middle" x="186" y="-99.8" font-family="Times,serif" font-size="14.00">ProjectsModule</text>
</g>
<!-- ProjectsModule&#45;&gt;AppModule -->
<g id="edge8" class="edge">
<title>ProjectsModule&#45;&gt;AppModule</title>
<path fill="none" stroke="black" d="M186,-122.13C186,-142.57 186,-173 186,-173 186,-173 508.19,-173 508.19,-173"/>
<polygon fill="black" stroke="black" points="508.19,-176.5 518.19,-173 508.19,-169.5 508.19,-176.5"/>
</g>
<!-- UsersModule -->
<g id="node9" class="node">
<title>UsersModule</title>
<polygon fill="#8dd3c7" stroke="black" points="115.92,-122 112.92,-126 91.92,-126 88.92,-122 24.08,-122 24.08,-86 115.92,-86 115.92,-122"/>
<text text-anchor="middle" x="70" y="-99.8" font-family="Times,serif" font-size="14.00">UsersModule</text>
</g>
<!-- UsersModule&#45;&gt;AppModule -->
<g id="edge9" class="edge">
<title>UsersModule&#45;&gt;AppModule</title>
<path fill="none" stroke="black" d="M70,-122.01C70,-144.49 70,-180 70,-180 70,-180 508.22,-180 508.22,-180"/>
<polygon fill="black" stroke="black" points="508.22,-183.5 518.22,-180 508.22,-176.5 508.22,-183.5"/>
</g>
</g>
</svg>
